<?xml version="1.0" encoding="UTF-8"?>
<svg width="36px" height="36px" viewBox="0 0 36 36" version="1.1" xmlns="http://www.w3.org/2000/svg" xmlns:xlink="http://www.w3.org/1999/xlink">
    <!-- Generator: Sketch 63.1 (92452) - https://sketch.com -->
    <title>icon / SNS_블로그</title>
    <desc>Created with Sketch.</desc>
    <g id="Symbol" stroke="none" stroke-width="1" fill="none" fill-rule="evenodd">
        <g id="Body-/-Bottom" transform="translate(-338.000000, -398.000000)">
            <g id="Bottom" transform="translate(0.000000, 150.000000)">
                <g id="Company_Info">
                    <g id="icon-/-SNS_블로그" transform="translate(338.000000, 248.000000)">
                        <g id="blog" transform="translate(7.411765, 9.000000)" fill="#626262" fill-rule="nonzero">
                            <path d="M11.397027,7.0882353 C10.9512012,7.0882353 10.5882353,7.45125057 10.5882353,7.89705882 C10.5882353,8.34286707 10.9512012,8.70588235 11.397027,8.70588235 C11.8428528,8.70588235 12.2058824,8.34286707 12.2058824,7.89705882 C12.2058824,7.45125057 11.8492855,7.0882353 11.397027,7.0882353" id="Fill-1"></path>
                            <path d="M16.25,7.0882353 C15.8041917,7.0882353 15.4411765,7.45125057 15.4411765,7.89705882 C15.4411765,8.34286707 15.8041917,8.70588235 16.25,8.70588235 C16.6958082,8.70588235 17.0588236,8.34286707 17.0588236,7.89705882 C17.0588236,7.45125057 16.6958082,7.0882353 16.25,7.0882353" id="Fill-3"></path>
                            <path d="M18.3720388,9.39287855 C18.3720388,11.298148 16.5917132,11.2797737 16.5917132,11.2797737 L16.1172924,11.2797737 L16.1172924,10.2111063 L16.4129968,10.2111063 C17.2754681,10.2111063 17.189221,9.32564453 17.189221,9.32564453 L17.189221,9.04480048 C16.8134299,9.53333111 16.1172924,9.50279795 16.1172924,9.50279795 C14.4231523,9.50279795 14.4416253,7.7135545 14.4416253,7.7135545 C14.4416253,5.78996514 16.1665765,5.86324473 16.1665765,5.86324473 C16.8381335,5.86324473 17.189221,6.3212422 17.189221,6.3212422 L17.189221,5.98537739 L18.3720388,5.98537739 L18.3720388,9.39287855 Z M13.8317435,7.72576777 C13.8317435,9.55775765 11.7741333,9.56386428 11.7741333,9.56386428 C9.69804171,9.56386428 9.7596468,7.72576777 9.7596468,7.72576777 C9.7596468,5.86324473 11.7741333,5.86324473 11.7741333,5.86324473 C13.8933485,5.86324473 13.8317435,7.72576777 13.8317435,7.72576777 L13.8317435,7.72576777 Z M8.8971755,6.18689628 L8.8971755,9.44173162 L7.72667874,9.44173162 L7.72667874,6.46169475 C7.72667874,5.43578043 7.17223291,5.46020696 7.17223291,5.46020696 L7.17223291,4.29384007 C8.95262008,4.29384007 8.8971755,6.18689628 8.8971755,6.18689628 L8.8971755,6.18689628 Z M5.06533874,9.56386428 C4.33223814,9.56386428 4.04269419,9.04480048 4.04269419,9.04480048 L4.04269419,9.44173162 L2.81059234,9.44173162 L2.81059234,4.4098661 L4.03037318,4.4098661 L4.03037318,6.32734883 C4.52321392,5.85103146 5.06533874,5.85103146 5.06533874,5.85103146 C6.71635522,5.85103146 6.78412082,7.68912797 6.78412082,7.68912797 C6.77796031,9.50279795 5.06533874,9.56386428 5.06533874,9.56386428 L5.06533874,9.56386428 Z M17.2323445,0.617647059 L3.95028656,0.617647059 C2.25614651,0.617647059 0.882352941,1.98553283 0.882352941,3.66485689 L0.882352941,10.8951103 C0.882352941,12.5805409 2.25614651,13.9423201 3.95028656,13.9423201 L8.52754495,13.9423201 L10.0861538,16.4582528 C10.0861538,16.4582528 10.1046353,16.488786 10.1354379,16.5314714 C10.2278455,16.6841372 10.3941793,16.7941177 10.5913156,16.7941177 C10.7822913,16.7941177 10.9486251,16.6903049 11.0410328,16.5376391 C11.0780574,16.4948926 11.0964773,16.4643595 11.0964773,16.4643595 L12.6550861,13.9484267 L17.226184,13.9484267 C18.9203241,13.9484267 20.2941176,12.5805409 20.2941176,10.9012169 L20.2941176,3.66485689 C20.2941176,1.98553283 18.9203241,0.617647059 17.2323445,0.617647059 L17.2323445,0.617647059 Z" id="Fill-5"></path>
                            <path d="M4.92647059,7.0882353 C4.48066234,7.0882353 4.11764706,7.45125057 4.11764706,7.89705882 C4.11764706,8.34286707 4.48066234,8.70588235 4.92647059,8.70588235 C5.37227883,8.70588235 5.73529412,8.34286707 5.73529412,7.89705882 C5.73529412,7.45125057 5.37227883,7.0882353 4.92647059,7.0882353" id="Fill-8"></path>
                        </g>
                        <circle id="Oval-Copy-3" stroke="#DEDEDE" cx="18" cy="18" r="17.5"></circle>
                    </g>
                </g>
            </g>
        </g>
    </g>
</svg>