<?xml version="1.0" encoding="UTF-8"?>
<svg width="36px" height="36px" viewBox="0 0 36 36" version="1.1" xmlns="http://www.w3.org/2000/svg" xmlns:xlink="http://www.w3.org/1999/xlink">
    <!-- Generator: Sketch 63.1 (92452) - https://sketch.com -->
    <title>icon / SNS_인스타</title>
    <desc>Created with Sketch.</desc>
    <g id="Symbol" stroke="none" stroke-width="1" fill="none" fill-rule="evenodd">
        <g id="Body-/-Bottom" transform="translate(-194.000000, -398.000000)">
            <g id="Bottom" transform="translate(0.000000, 150.000000)">
                <g id="Company_Info">
                    <g id="icon-/-SNS_인스타" transform="translate(194.000000, 248.000000)">
                        <g id="Group-15">
                            <g id="instagram" transform="translate(9.000000, 9.000000)" fill="#626262" fill-rule="nonzero">
                                <path d="M5.30502857,1.82862857 C3.18188571,1.82862857 1.45474286,3.55577143 1.45474286,5.67891429 L1.45474286,12.6954857 C1.45474286,14.8177714 3.18188571,16.5449143 5.30502857,16.5449143 L12.3216,16.5449143 C14.4447429,16.5449143 16.1710286,14.8177714 16.1710286,12.6954857 L16.1710286,5.67891429 C16.1710286,3.55577143 14.4447429,1.82862857 12.3216,1.82862857 L5.30502857,1.82862857 Z M12.3216,18.0003429 L5.30502857,18.0003429 C3.88817143,18.0003429 2.55531429,17.4483429 1.55417143,16.4463429 C0.552171429,15.4443429 0.000171428571,14.1123429 0.000171428571,12.6954857 L0.000171428571,5.67891429 C0.000171428571,4.26205714 0.552171429,2.93005714 1.55417143,1.92805714 C2.55531429,0.926057143 3.88817143,0.374057143 5.30502857,0.374057143 L12.3216,0.374057143 C13.7384571,0.374057143 15.0704571,0.926057143 16.0724571,1.92805714 C17.0744571,2.93005714 17.6264571,4.26205714 17.6264571,5.67891429 L17.6264571,12.6954857 C17.6264571,14.1123429 17.0744571,15.4443429 16.0724571,16.4463429 C15.0704571,17.4483429 13.7384571,18.0003429 12.3216,18.0003429 L12.3216,18.0003429 Z" id="Fill-1"></path>
                                <path d="M8.81314286,6.14408571 C7.13485714,6.14408571 5.77028571,7.50951429 5.77028571,9.18694286 C5.77028571,10.8643714 7.13485714,12.2298 8.81314286,12.2298 C10.4914286,12.2298 11.856,10.8643714 11.856,9.18694286 C11.856,7.50951429 10.4914286,6.14408571 8.81314286,6.14408571 M8.81314286,13.6843714 C6.33342857,13.6843714 4.31571429,11.6666571 4.31571429,9.18694286 C4.31571429,6.70722857 6.33342857,4.68951429 8.81314286,4.68951429 C11.2928571,4.68951429 13.3105714,6.70722857 13.3105714,9.18694286 C13.3105714,11.6666571 11.2928571,13.6843714 8.81314286,13.6843714" id="Fill-4"></path>
                                <path d="M14.3104286,4.55322857 C14.3104286,5.0298 13.9238571,5.41637143 13.4472857,5.41637143 C12.9698571,5.41637143 12.5832857,5.0298 12.5832857,4.55322857 C12.5832857,4.0758 12.9698571,3.68922857 13.4472857,3.68922857 C13.9238571,3.68922857 14.3104286,4.0758 14.3104286,4.55322857" id="Fill-6"></path>
                            </g>
                            <circle id="Oval" stroke="#DEDEDE" cx="18" cy="18" r="17.5"></circle>
                        </g>
                    </g>
                </g>
            </g>
        </g>
    </g>
</svg>