<?xml version="1.0" encoding="UTF-8"?>
<svg width="36px" height="36px" viewBox="0 0 36 36" version="1.1" xmlns="http://www.w3.org/2000/svg" xmlns:xlink="http://www.w3.org/1999/xlink">
    <!-- Generator: Sketch 63.1 (92452) - https://sketch.com -->
    <title>icon / SNS_카카오톡</title>
    <desc>Created with Sketch.</desc>
    <g id="Symbol" stroke="none" stroke-width="1" fill="none" fill-rule="evenodd">
        <g id="Body-/-Bottom" transform="translate(-242.000000, -398.000000)">
            <g id="Bottom" transform="translate(0.000000, 150.000000)">
                <g id="Company_Info">
                    <g id="icon-/-SNS_카카오톡" transform="translate(242.000000, 248.000000)">
                        <g id="Kakao" transform="translate(8.100000, 9.000000)" fill-rule="nonzero">
                            <path d="M9.765,15.4071 C15.1578,15.4071 19.53,11.9583 19.53,7.7031 C19.53,3.4488 15.1578,-1.11910481e-13 9.765,-1.11910481e-13 C4.3713,-1.11910481e-13 -8.31335001e-14,3.4488 -8.31335001e-14,7.7031 C-8.31335001e-14,10.341 1.6794,12.6684 4.2408,14.0571 C4.2408,14.0571 3.8952,15.9003 1.9593,17.6661 C1.9593,17.6661 1.7676,18.0027 2.3418,17.8767 C2.9169,17.7507 6.4872,16.4907 8.0622,15.291 C8.0622,15.291 9.1845,15.4071 9.765,15.4071 Z" id="Fill-10" fill="#626262"></path>
                            <path d="M5.18427,5.57946 L2.41317,5.57946 C2.15217,5.57946 1.94157,5.79096 1.94157,6.05106 C1.94157,6.31116 2.15217,6.52266 2.41317,6.52266 L3.31407,6.52266 L3.31407,9.84186 C3.31407,9.96336 3.36357,10.08126 3.44997,10.16766 C3.53457,10.25316 3.65247,10.30176 3.77397,10.30176 L3.87387,10.30176 C3.99537,10.30176 4.11327,10.25316 4.19787,10.16766 C4.28427,10.08126 4.33377,9.96336 4.33377,9.84186 L4.33377,6.52266 L5.18427,6.52266 C5.44527,6.52266 5.65587,6.31116 5.65587,6.05106 C5.65587,5.79096 5.44527,5.57946 5.18427,5.57946" id="Fill-12" fill="#FFFFFF"></path>
                            <path d="M12.546,9.41544 L11.2581,9.41544 L11.2581,6.02514 C11.2581,5.74254 11.0286,5.51394 10.746,5.51394 C10.4643,5.51394 10.2348,5.74254 10.2348,6.02514 L10.2348,9.67914 C10.2348,9.70794 10.2393,9.73404 10.2429,9.76194 C10.2384,9.78804 10.2348,9.81504 10.2348,9.84294 C10.2348,10.07964 10.4265,10.27134 10.6632,10.27134 L12.546,10.27134 C12.7827,10.27134 12.9744,10.07964 12.9744,9.84294 C12.9744,9.60714 12.7827,9.41544 12.546,9.41544" id="Fill-14" fill="#FFFFFF"></path>
                            <path d="M17.01477,9.5706 L15.57837,7.6851 L16.87617,6.3864 C17.05257,6.2118 17.05257,5.9265 16.87707,5.7501 C16.70067,5.5746 16.41537,5.5746 16.23987,5.7501 L14.63337,7.3575 L14.63337,6.0255 C14.63337,5.7429 14.40477,5.5134 14.12217,5.5134 C13.84047,5.5134 13.61097,5.7429 13.61097,6.0255 L13.61097,9.792 C13.61097,10.0746 13.84047,10.3032 14.12217,10.3032 C14.40477,10.3032 14.63337,10.0746 14.63337,9.792 L14.63337,8.6301 L14.92587,8.3376 L16.28397,10.1205 C16.43427,10.323 16.72227,10.3635 16.92387,10.2114 C17.12637,10.0593 17.16687,9.7731 17.01477,9.5706" id="Fill-16" fill="#FFFFFF"></path>
                            <path d="M6.81201,8.47062 L7.44741,6.65802 C7.45371,6.65802 7.46001,6.65982 7.46811,6.65982 L8.10171,8.47062 L6.81201,8.47062 Z M9.50121,9.69372 L8.12061,5.91552 C8.12061,5.91552 8.11701,5.91282 8.11521,5.91102 C8.02701,5.68062 7.77231,5.51322 7.46811,5.51322 C7.13061,5.51322 6.85251,5.71932 6.79671,5.98932 C6.78771,6.00912 6.77781,6.02892 6.77061,6.05142 L5.41251,9.69372 C5.32881,9.93222 5.45481,10.19412 5.69241,10.27692 C5.93091,10.36152 6.19281,10.23552 6.27651,9.99702 L6.51231,9.32652 L8.40231,9.32652 L8.63721,9.99702 C8.72091,10.23552 8.98281,10.36152 9.22131,10.27692 C9.45891,10.19412 9.58491,9.93222 9.50121,9.69372 L9.50121,9.69372 Z" id="Fill-18" fill="#FFFFFF"></path>
                        </g>
                        <circle id="Oval-Copy" stroke="#DEDEDE" cx="18" cy="18" r="17.5"></circle>
                    </g>
                </g>
            </g>
        </g>
    </g>
</svg>